<svg width="45" height="45" viewBox="0 0 45 45" fill="none" xmlns="http://www.w3.org/2000/svg">
<g clip-path="url(#clip0_6_8953)">
<rect width="45" height="45" rx="22.5" fill="#151F6D"/>
<path d="M25.5067 31.0048C25.3146 31.0055 25.1248 30.9631 24.9512 30.8808C24.7776 30.7984 24.6247 30.6782 24.5037 30.529L18.2925 22.8134C18.1034 22.5833 18 22.2947 18 21.9968C18 21.6989 18.1034 21.4103 18.2925 21.1802L24.7223 13.4646C24.9405 13.2019 25.2542 13.0368 25.5942 13.0054C25.9343 12.9741 26.2728 13.0791 26.5354 13.2974C26.7981 13.5157 26.9632 13.8293 26.9946 14.1693C27.0259 14.5094 26.9209 14.8479 26.7026 15.1106L20.9544 22.0032L26.5097 28.8959C26.667 29.0847 26.7669 29.3145 26.7976 29.5583C26.8283 29.802 26.7885 30.0495 26.683 30.2713C26.5775 30.4932 26.4106 30.6802 26.2022 30.8102C25.9937 30.9402 25.7524 31.0077 25.5067 31.0048Z" fill="white"/>
</g>
<defs>
<clipPath id="clip0_6_8953">
<rect width="45" height="45" rx="22.5" fill="white"/>
</clipPath>
</defs>
</svg>
