<svg width="45" height="45" viewBox="0 0 45 45" fill="none" xmlns="http://www.w3.org/2000/svg">
<rect width="45" height="45" rx="22.5" fill="#151F6D"/>
<path d="M23 11C22.2097 11 21.5713 11.6385 21.5713 12.4287V13.2279C18.3344 13.7413 15.8564 16.5452 15.8564 19.9295V21.4207C15.8564 23.4477 15.1644 25.4166 13.9009 26.9971L13.2356 27.832C12.9767 28.1535 12.9276 28.5955 13.1062 28.9661C13.2847 29.3367 13.6598 29.5733 14.0705 29.5733H31.9295C32.3402 29.5733 32.7153 29.3367 32.8938 28.9661C33.0724 28.5955 33.0233 28.1535 32.7644 27.832L32.0991 27.0016C30.8356 25.4166 30.1436 23.4477 30.1436 21.4207V19.9295C30.1436 16.5452 27.6656 13.7413 24.4287 13.2279V12.4287C24.4287 11.6385 23.7903 11 23 11ZM23 15.2861H23.3572C25.9199 15.2861 28.0005 17.3667 28.0005 19.9295V21.4207C28.0005 23.5593 28.6211 25.6443 29.773 27.4302H16.227C17.3789 25.6443 17.9995 23.5593 17.9995 21.4207V19.9295C17.9995 17.3667 20.0801 15.2861 22.6428 15.2861H23ZM25.8574 31.002H23H20.1426C20.1426 31.761 20.4417 32.4888 20.9775 33.0245C21.5132 33.5603 22.241 33.8594 23 33.8594C23.759 33.8594 24.4868 33.5603 25.0225 33.0245C25.5583 32.4888 25.8574 31.761 25.8574 31.002Z" fill="white"/>
</svg>
