<svg width="4" height="16" viewBox="0 0 4 16" fill="none" xmlns="http://www.w3.org/2000/svg">
<path d="M2 4C1.46957 4 0.960859 3.78929 0.585786 3.41421C0.210714 3.03914 0 2.53043 0 2C0 1.46957 0.210714 0.960859 0.585786 0.585786C0.960859 0.210714 1.46957 0 2 0C2.53043 0 3.03914 0.210714 3.41421 0.585786C3.78929 0.960859 4 1.46957 4 2C4 2.53043 3.78929 3.03914 3.41421 3.41421C3.03914 3.78929 2.53043 4 2 4ZM2 9.81818C1.46957 9.81818 0.960859 9.60747 0.585786 9.2324C0.210714 8.85732 0 8.34861 0 7.81818C0 7.28775 0.210714 6.77904 0.585786 6.40397C0.960859 6.0289 1.46957 5.81818 2 5.81818C2.53043 5.81818 3.03914 6.0289 3.41421 6.40397C3.78929 6.77904 4 7.28775 4 7.81818C4 8.34861 3.78929 8.85732 3.41421 9.2324C3.03914 9.60747 2.53043 9.81818 2 9.81818ZM0 13.6364C0 14.1668 0.210714 14.6755 0.585786 15.0506C0.960859 15.4257 1.46957 15.6364 2 15.6364C2.53043 15.6364 3.03914 15.4257 3.41421 15.0506C3.78929 14.6755 4 14.1668 4 13.6364C4 13.1059 3.78929 12.5972 3.41421 12.2221C3.03914 11.8471 2.53043 11.6364 2 11.6364C1.46957 11.6364 0.960859 11.8471 0.585786 12.2221C0.210714 12.5972 0 13.1059 0 13.6364Z" fill="white"/>
</svg>
