<svg width="13" height="13" viewBox="0 0 13 13" fill="none" xmlns="http://www.w3.org/2000/svg">
<path d="M12.5882 6.84311C12.8532 6.49291 12.9999 6.06383 12.9999 5.61741C12.9999 4.90912 12.604 4.23869 11.9667 3.86483C11.8026 3.7686 11.6158 3.71795 11.4256 3.71813H7.64283L7.73748 1.77941C7.75956 1.3109 7.59393 0.866047 7.27212 0.526889C7.1142 0.359721 6.92366 0.226716 6.7123 0.136093C6.50094 0.0454706 6.27324 -0.000843971 6.04327 1.1642e-05C5.22298 1.1642e-05 4.49734 0.552129 4.27965 1.34244L2.9246 6.2484H0.88492C0.605706 6.2484 0.380127 6.47398 0.380127 6.75319V12.4952C0.380127 12.7744 0.605706 13 0.88492 13H10.3703C10.5154 13 10.6574 12.9716 10.7883 12.9148C11.5392 12.5946 12.0235 11.8611 12.0235 11.0471C12.0235 10.8483 11.9951 10.6527 11.9383 10.4634C12.2033 10.1132 12.35 9.68414 12.35 9.23772C12.35 9.03896 12.3216 8.84335 12.2648 8.65405C12.5299 8.30385 12.6766 7.87478 12.6766 7.42835C12.6734 7.22959 12.645 7.0324 12.5882 6.84311ZM1.51591 11.8642V7.38418H2.79367V11.8642H1.51591ZM11.555 6.29572L11.2095 6.59544L11.4288 6.99612C11.501 7.12811 11.5385 7.27631 11.5376 7.42677C11.5376 7.68706 11.424 7.93472 11.2284 8.10509L10.883 8.40481L11.1022 8.80549C11.1745 8.93748 11.2119 9.08568 11.2111 9.23614C11.2111 9.49642 11.0975 9.74409 10.9019 9.91446L10.5564 10.2142L10.7757 10.6149C10.8479 10.7468 10.8854 10.895 10.8845 11.0455C10.8845 11.3989 10.6763 11.7175 10.3545 11.8626H3.80325V7.3337L5.37284 1.6469C5.41331 1.50114 5.5002 1.37255 5.62032 1.2806C5.74045 1.18866 5.88727 1.13838 6.03854 1.13737C6.15843 1.13737 6.27674 1.17208 6.37138 1.24306C6.52755 1.3598 6.61116 1.53647 6.6017 1.72419L6.45026 4.85391H11.4098C11.6906 5.02585 11.8642 5.31611 11.8642 5.61741C11.8642 5.87769 11.7506 6.12378 11.555 6.29572Z" fill="white"/>
</svg>
