<svg width="18" height="17" viewBox="0 0 18 17" fill="none" xmlns="http://www.w3.org/2000/svg">
<path d="M1 4.75H17M3 1H15C15.5304 1 16.0391 1.19754 16.4142 1.54917C16.7893 1.90081 17 2.37772 17 2.875V14.125C17 14.6223 16.7893 15.0992 16.4142 15.4508C16.0391 15.8025 15.5304 16 15 16H3C2.46957 16 1.96086 15.8025 1.58579 15.4508C1.21071 15.0992 1 14.6223 1 14.125V2.875C1 2.37772 1.21071 1.90081 1.58579 1.54917C1.96086 1.19754 2.46957 1 3 1V1Z" stroke="white" stroke-linecap="round" stroke-linejoin="round"/>
<path d="M9 9.43751C9.55228 9.43751 10 9.01777 10 8.5C10 7.98223 9.55228 7.5625 9 7.5625C8.44772 7.5625 8 7.98223 8 8.5C8 9.01777 8.44772 9.43751 9 9.43751Z" fill="white"/>
<path d="M5 9.43751C5.55228 9.43751 6 9.01777 6 8.5C6 7.98223 5.55228 7.5625 5 7.5625C4.44772 7.5625 4 7.98223 4 8.5C4 9.01777 4.44772 9.43751 5 9.43751Z" fill="white"/>
<path d="M5 13.1875C5.55228 13.1875 6 12.7678 6 12.25C6 11.7322 5.55228 11.3125 5 11.3125C4.44772 11.3125 4 11.7322 4 12.25C4 12.7678 4.44772 13.1875 5 13.1875Z" fill="white"/>
</svg>
