<svg width="15" height="17" viewBox="0 0 15 17" fill="none" xmlns="http://www.w3.org/2000/svg">
<path d="M2.5 3.52979C2.5 3.39602 2.56585 3.26772 2.68306 3.17313C2.80027 3.07853 2.95924 3.02539 3.125 3.02539H9.375C9.54076 3.02539 9.69973 3.07853 9.81694 3.17313C9.93415 3.26772 10 3.39602 10 3.52979C10 3.66357 9.93415 3.79187 9.81694 3.88646C9.69973 3.98105 9.54076 4.0342 9.375 4.0342H3.125C2.95924 4.0342 2.80027 3.98105 2.68306 3.88646C2.56585 3.79187 2.5 3.66357 2.5 3.52979ZM2.5 5.5474C2.5 5.41363 2.56585 5.28533 2.68306 5.19074C2.80027 5.09614 2.95924 5.043 3.125 5.043H11.875C12.0408 5.043 12.1997 5.09614 12.3169 5.19074C12.4342 5.28533 12.5 5.41363 12.5 5.5474V13.6178C12.5 13.7516 12.4342 13.8799 12.3169 13.9745C12.1997 14.0691 12.0408 14.1222 11.875 14.1222H3.125C2.95924 14.1222 2.80027 14.0691 2.68306 13.9745C2.56585 13.8799 2.5 13.7516 2.5 13.6178V5.5474Z" fill="#151F6D"/>
<path d="M0 2.01761C0 1.48251 0.263392 0.969319 0.732233 0.590944C1.20107 0.212569 1.83696 0 2.5 0L12.5 0C13.163 0 13.7989 0.212569 14.2678 0.590944C14.7366 0.969319 15 1.48251 15 2.01761V14.1233C15 14.6584 14.7366 15.1716 14.2678 15.5499C13.7989 15.9283 13.163 16.1409 12.5 16.1409H2.5C1.83696 16.1409 1.20107 15.9283 0.732233 15.5499C0.263392 15.1716 0 14.6584 0 14.1233V2.01761ZM12.5 1.0088H2.5C2.16848 1.0088 1.85054 1.11509 1.61612 1.30428C1.3817 1.49346 1.25 1.75006 1.25 2.01761V14.1233C1.25 14.3908 1.3817 14.6474 1.61612 14.8366C1.85054 15.0258 2.16848 15.1321 2.5 15.1321H12.5C12.8315 15.1321 13.1495 15.0258 13.3839 14.8366C13.6183 14.6474 13.75 14.3908 13.75 14.1233V2.01761C13.75 1.75006 13.6183 1.49346 13.3839 1.30428C13.1495 1.11509 12.8315 1.0088 12.5 1.0088Z" fill="#151F6D"/>
</svg>
