<svg width="13" height="13" viewBox="0 0 13 13" fill="none" xmlns="http://www.w3.org/2000/svg">
<path d="M2.68639 11.7581C2.22808 12.2164 1.44444 11.8918 1.44444 11.2436V10.3963C1.44444 10.1391 1.34949 9.89256 1.19505 9.68684C0.442841 8.6849 0 7.46061 0 6.13889C0 2.74878 2.91056 0 6.5 0C10.0894 0 13 2.74878 13 6.13889C13 9.529 10.0894 12.2778 6.5 12.2778C5.48685 12.281 4.48842 12.0563 3.57773 11.6232C3.27957 11.4814 2.91984 11.5246 2.68639 11.7581ZM6.5 10.8333C9.29211 10.8333 11.5556 8.73167 11.5556 6.13889C11.5556 3.54611 9.29211 1.44444 6.5 1.44444C3.70789 1.44444 1.44444 3.54611 1.44444 6.13889C1.44444 8.73167 3.70789 10.8333 6.5 10.8333Z" fill="white"/>
</svg>
