<svg width="392" height="385" viewBox="0 0 392 385" fill="none" xmlns="http://www.w3.org/2000/svg">
<g clip-path="url(#clip0_2_6450)">
<path d="M423.901 343.494H390.779V343.744H423.901V343.494Z" fill="#EBEBEB"/>
<path d="M305.22 346.208H296.527V346.458H305.22V346.208Z" fill="#EBEBEB"/>
<path d="M389.778 334.208H370.586V334.458H389.778V334.208Z" fill="#EBEBEB"/>
<path d="M69.652 335.888H26.459V336.138H69.652V335.888Z" fill="#EBEBEB"/>
<path d="M84.8889 335.888H78.5559V336.138H84.8889V335.888Z" fill="#EBEBEB"/>
<path d="M199.147 340.111H105.471V340.361H199.147V340.111Z" fill="#EBEBEB"/>
<path d="M212.401 282.8H19.302C16.155 282.8 13.594 280.239 13.594 277.092V5.6599C13.594 2.5129 16.155 -0.0480957 19.302 -0.0480957H212.401C215.547 -0.0480957 218.108 2.5129 218.108 5.6599V277.092C218.108 280.239 215.547 282.8 212.401 282.8ZM19.302 0.202904C16.292 0.202904 13.844 2.6509 13.844 5.6609V277.093C13.844 280.103 16.292 282.551 19.302 282.551H212.401C215.41 282.551 217.858 280.103 217.858 277.093V5.6599C217.858 2.6509 215.41 0.201904 212.401 0.201904L19.302 0.202904Z" fill="#EBEBEB"/>
<path d="M428.698 282.8H235.599C232.453 282.8 229.892 280.239 229.892 277.092V5.6599C229.892 2.5129 232.453 -0.0480957 235.599 -0.0480957H428.698C431.846 -0.0480957 434.406 2.5129 434.406 5.6599V277.092C434.406 280.239 431.845 282.8 428.698 282.8ZM235.599 0.202904C232.59 0.202904 230.142 2.6509 230.142 5.6609V277.093C230.142 280.103 232.59 282.551 235.599 282.551H428.698C431.708 282.551 434.156 280.103 434.156 277.093V5.6599C434.156 2.6509 431.708 0.201904 428.698 0.201904L235.599 0.202904Z" fill="#EBEBEB"/>
<path d="M474 327.398H-26V327.648H474V327.398Z" fill="#EBEBEB"/>
<path d="M324.073 321.592H419.25V194.947H324.073V321.592Z" fill="#F5F5F5"/>
<path d="M305.917 321.592H324.073V194.947H305.917V321.592Z" fill="#E6E6E6"/>
<path d="M330.25 235.1H412.583V204.345H330.25V235.1Z" fill="#FAFAFA"/>
<path d="M382.153 204.345L381.793 208.445C381.674 209.797 380.542 210.835 379.184 210.835H363.648C362.291 210.835 361.158 209.798 361.039 208.445L360.679 204.345H382.153Z" fill="#EBEBEB"/>
<path d="M330.25 269.215H412.583V238.46H330.25V269.215Z" fill="#FAFAFA"/>
<path d="M382.153 238.459L381.793 242.559C381.674 243.911 380.542 244.949 379.184 244.949H363.648C362.291 244.949 361.158 243.911 361.039 242.559L360.679 238.459H382.153Z" fill="#EBEBEB"/>
<path d="M330.25 303.329H412.583V272.574H330.25V303.329Z" fill="#FAFAFA"/>
<path d="M382.153 272.574L381.793 276.674C381.674 278.026 380.542 279.064 379.184 279.064H363.648C362.291 279.064 361.158 278.026 361.039 276.674L360.679 272.574H382.153Z" fill="#EBEBEB"/>
<path d="M330.249 327.915H411.582L412.582 321.582H330.249V327.915Z" fill="#E6E6E6"/>
<path d="M313.249 327.915H330.249V321.582H312.249L313.249 327.915Z" fill="#E0E0E0"/>
<path d="M368.482 195.084H400.982L397.376 153.868H364.876L368.482 195.084Z" fill="#FAFAFA"/>
<path d="M368.481 195.084H366.929L363.323 153.868H364.875L368.481 195.084Z" fill="#EBEBEB"/>
<path d="M371.426 190.882H397.299L394.429 158.07H368.556L371.426 190.882Z" fill="#F0F0F0"/>
<path d="M373.32 188.181H394.933L392.535 160.771H370.922L373.32 188.181Z" fill="#E6E6E6"/>
<path d="M359.349 195.084L361.581 169.573H329.228L326.996 195.084H359.349Z" fill="#F0F0F0"/>
<path d="M359.349 195.084L361.581 169.573H363.323L361.091 195.084H359.349Z" fill="#E0E0E0"/>
<path d="M356.278 192.483L358.055 172.174H332.299L330.522 192.483H356.278Z" fill="#EBEBEB"/>
<path d="M354.304 190.811L355.788 173.846H334.273L332.788 190.811H354.304Z" fill="#F5F5F5"/>
<path d="M284.644 310.77C284.644 317.53 283.583 321.903 281.796 324.708C280.452 326.819 278.04 328.005 275.537 328.005H265.749C263.247 328.005 260.835 326.818 259.49 324.708C257.703 321.902 256.642 317.53 256.642 310.77C256.642 300.965 260.917 293.115 262.313 286.847C262.816 284.59 261.142 277.673 261.142 277.673H280.142C280.142 277.673 278.468 284.591 278.971 286.847C280.369 293.115 284.644 300.965 284.644 310.77Z" fill="#EBEBEB"/>
<path d="M317 271.087C317 262.574 303.654 266.108 300.29 252.901C299.015 247.896 309.87 236.569 309.87 236.569H276.025C276.025 236.569 286.88 247.896 285.605 252.901C282.241 266.108 268.895 262.574 268.895 271.087C268.895 280.463 287.722 299.99 288.629 321.969C288.71 323.934 285.088 328.006 285.088 328.006H300.806C300.806 328.006 297.184 323.934 297.265 321.969C298.173 299.99 317 280.463 317 271.087Z" fill="#F5F5F5"/>
<path d="M306.771 293.21C308.738 289.072 304.671 275.005 304.671 275.005H319.338C319.338 275.005 315.27 289.073 317.237 293.21C318.626 296.131 321.785 297.996 321.785 301.452V322.224C321.785 327.603 317.384 328.005 312.004 328.005C306.624 328.005 302.223 327.604 302.223 322.224V301.452C302.223 297.996 305.382 296.131 306.771 293.21Z" fill="#F0F0F0"/>
<path d="M139.152 170.528C130.726 166.879 125.918 159.179 128.437 153.363C130.955 147.547 139.861 145.784 148.287 149.432C156.715 153.081 161.522 160.782 159.004 166.598C156.485 172.414 147.58 174.177 139.152 170.528ZM145.86 155.037C141.911 153.327 137.739 154.154 136.559 156.879C135.379 159.604 137.631 163.212 141.58 164.922C145.529 166.632 149.702 165.806 150.882 163.081C152.062 160.356 149.808 156.747 145.86 155.037Z" fill="#E6E6E6"/>
<path d="M149.066 155.36L145.062 153.626L169.259 97.6909C169.738 96.5849 171.022 96.0759 172.128 96.5549C173.233 97.0339 173.742 98.3169 173.263 99.4229L149.066 155.36Z" fill="#E6E6E6"/>
<path d="M175.117 104.831L167.434 101.474L169.167 97.4699L176.851 100.827L175.117 104.831Z" fill="#E6E6E6"/>
<path d="M171.33 109.308L165.828 106.918L167.562 102.914L173.063 105.304L171.33 109.308Z" fill="#E6E6E6"/>
<path d="M165.343 110.564L163.609 114.568L169.779 117.24L171.513 113.236L165.343 110.564Z" fill="#E6E6E6"/>
<path d="M150.623 149.389L148.423 148.437C147.327 147.962 146.823 146.689 147.298 145.593L147.313 145.559C147.788 144.463 149.061 143.959 150.157 144.434L152.357 145.386C153.453 145.861 153.957 147.134 153.482 148.23L153.467 148.264C152.992 149.359 151.719 149.863 150.623 149.389Z" fill="#E6E6E6"/>
<path d="M322.469 130.16C329.145 134.608 330.868 143.795 326.307 150.64C321.747 157.484 312.604 159.434 305.928 154.986C299.251 150.537 297.529 141.349 302.089 134.505C306.65 127.66 315.792 125.712 322.469 130.16ZM310.324 148.389C313.453 150.473 317.736 149.56 319.873 146.353C322.01 143.146 321.203 138.841 318.074 136.757C314.945 134.672 310.661 135.585 308.524 138.792C306.388 141.999 307.195 146.305 310.324 148.389Z" fill="#E6E6E6"/>
<path d="M308.707 146.614L312.846 149.372L283.232 194.692C282.471 195.835 280.926 196.145 279.783 195.383C278.64 194.622 278.331 193.078 279.092 191.936L308.707 146.614Z" fill="#E6E6E6"/>
<path d="M279.278 182.054L287.988 187.904L283.64 194.43L274.913 188.569C273.66 187.728 273.324 186.031 274.16 184.775L275.47 182.81C276.312 181.547 278.019 181.209 279.278 182.054Z" fill="#E6E6E6"/>
<path d="M201.537 43.5559L196.94 55.4639C196.526 56.5369 195.32 57.0709 194.247 56.6569C193.174 56.2429 192.64 55.0369 193.054 53.9629L197.651 42.0549C199.136 38.2099 197.216 33.8709 193.37 32.3859L189.11 30.7409C185.265 29.2559 180.927 31.1789 179.443 35.0249L177.566 39.8869L173.68 38.3869L175.557 33.5249C177.869 27.5349 184.624 24.5439 190.611 26.8549L194.871 28.4999C200.857 30.8119 203.849 37.5659 201.537 43.5559Z" fill="#F0F0F0"/>
<path d="M200.81 45.4319C200.504 45.0369 200.088 44.7149 199.589 44.5219L176.388 35.5649C175.871 35.3649 175.327 35.3239 174.822 35.4259C173.895 35.6079 173.074 36.2489 172.709 37.1939L163.752 60.3949C163.185 61.8629 163.913 63.5069 165.382 64.0739L188.583 73.0309C190.051 73.5979 191.695 72.8699 192.262 71.4009L201.219 48.1999C201.591 47.2379 201.406 46.1949 200.81 45.4319ZM183.194 63.3599L175.836 60.5189L179.726 53.7279C179.236 52.7429 179.146 51.5609 179.574 50.4509C180.386 48.3489 182.748 47.2969 184.851 48.1089C186.953 48.9209 188.002 51.2889 187.191 53.3909C186.763 54.5009 185.902 55.3149 184.871 55.7139L183.194 63.3599Z" fill="#E6E6E6"/>
<path d="M43.1569 314.456H228.286V214.824L43.1569 214.824V314.456Z" fill="#E6E6E6"/>
<path d="M213.445 327.384H225.08V318.593H213.445V327.384Z" fill="#E6E6E6"/>
<path d="M29.0254 327.384H40.6604L40.6604 207.412H29.0254L29.0254 327.384Z" fill="#E6E6E6"/>
<path d="M40.521 207.412V327.384H46.726V320.661H225.08V327.384H231.286V207.412H228.183H225.08H46.727H43.624H40.521ZM46.727 218.272H132.801V259.941H46.727V218.272ZM225.08 309.802H139.006V218.272H225.08V309.802ZM46.727 309.802V266.146H132.801V309.802H46.727Z" fill="#F0F0F0"/>
<path d="M139.006 309.801H219.262V222.753H139.006V309.801Z" fill="#F5F5F5"/>
<path d="M142.64 263.669C142.64 265.728 144.309 267.398 146.369 267.398C148.428 267.398 150.098 265.729 150.098 263.669C150.098 261.609 148.429 259.94 146.369 259.94C144.31 259.941 142.64 261.61 142.64 263.669Z" fill="#FAFAFA"/>
<path d="M146.369 267.398C147.873 267.398 149.161 266.503 149.75 265.221C149.968 265.695 150.097 266.217 150.097 266.772C150.097 268.831 148.428 270.501 146.368 270.501C144.309 270.501 142.639 268.832 142.639 266.772C142.639 266.217 142.769 265.694 142.986 265.221C143.577 266.503 144.865 267.398 146.369 267.398Z" fill="#E0E0E0"/>
<path d="M188.137 309.802H168.99L159.841 222.754H178.988L188.137 309.802Z" fill="#FAFAFA"/>
<path d="M164.086 309.802H160.275L151.126 222.754H154.937L164.086 309.802Z" fill="#FAFAFA"/>
<path d="M113.403 259.9H120.987V222.668H113.403V259.9Z" fill="#FAFAFA"/>
<path d="M81.956 259.9H89.54V222.668H81.956V259.9Z" fill="#F5F5F5"/>
<path d="M105.819 259.9H113.403V225.284H105.819V259.9Z" fill="#F5F5F5"/>
<path d="M89.541 259.9H97.125V225.284H89.541V259.9Z" fill="#FAFAFA"/>
<path d="M97.1244 259.9H102.025V222.668H97.1244V259.9Z" fill="#EBEBEB"/>
<path d="M102.026 259.9H105.818V225.284H102.026V259.9Z" fill="#FAFAFA"/>
<path d="M74.3723 259.9H81.9563V222.668H74.3723V259.9Z" fill="#EBEBEB"/>
<path d="M66.7873 259.9H74.3713V225.284H66.7873V259.9Z" fill="#E6E6E6"/>
<path d="M50.5098 259.9H58.0938L58.0938 225.284H50.5098L50.5098 259.9Z" fill="#E6E6E6"/>
<path d="M58.0934 259.9H62.9944L62.9944 222.668H58.0934L58.0934 259.9Z" fill="#FAFAFA"/>
<path d="M62.9949 259.9H66.7869V225.284H62.9949L62.9949 259.9Z" fill="#EBEBEB"/>
<path d="M46.7173 259.9H50.5093L50.5093 223.549H46.7173L46.7173 259.9Z" fill="#EBEBEB"/>
<path d="M54.301 272.569H46.717V309.801H54.301V272.569Z" fill="#EBEBEB"/>
<path d="M85.7481 272.569H78.1641V309.801H85.7481V272.569Z" fill="#FAFAFA"/>
<path d="M61.885 275.186H54.301V309.802H61.885V275.186Z" fill="#FAFAFA"/>
<path d="M78.1631 275.186H70.5791V309.802H78.1631V275.186Z" fill="#EBEBEB"/>
<path d="M70.579 272.569H65.678V309.801H70.579V272.569Z" fill="#FAFAFA"/>
<path d="M65.678 275.186H61.886V309.802H65.678V275.186Z" fill="#F5F5F5"/>
<path d="M93.332 272.569H85.748V309.801H93.332V272.569Z" fill="#EBEBEB"/>
<path d="M100.916 275.186H93.332V309.802H100.916V275.186Z" fill="#F5F5F5"/>
<path d="M117.194 275.186H109.61V309.802H117.194V275.186Z" fill="#E6E6E6"/>
<path d="M109.61 272.569H104.709V309.801H109.61V272.569Z" fill="#FAFAFA"/>
<path d="M125.888 272.569H120.987V309.801H125.888V272.569Z" fill="#FAFAFA"/>
<path d="M104.709 275.186H100.917V309.802H104.709V275.186Z" fill="#EBEBEB"/>
<path d="M120.987 273.451H117.195V309.802H120.987V273.451Z" fill="#EBEBEB"/>
<path d="M55.1801 143.288C55.1801 143.288 53.9071 143.874 53.3251 145.058C52.7431 146.242 54.5481 148.428 54.5481 148.428C54.5481 148.428 56.0631 149.483 57.5691 148.799C59.0751 148.115 59.0751 148.115 59.0751 148.115C59.0751 148.115 56.5001 143.647 55.2501 143.602L55.1801 143.288Z" fill="#E6E6E6"/>
<path d="M61.628 143.253C61.812 145.372 60.498 148.046 58.606 148.21C56.714 148.374 54.96 145.967 54.776 143.847C54.592 141.728 56.12 141.521 58.012 141.357C59.903 141.193 61.444 141.134 61.628 143.253Z" fill="#E6E6E6"/>
<path d="M56.085 142.629C56.085 142.629 57.531 143.781 60.51 143.108C60.51 143.108 55.811 146.243 56.085 142.629Z" fill="#E6E6E6"/>
<path d="M57.3601 142.208C57.3601 142.208 59.0281 141.918 59.0521 142.614C59.0521 142.614 60.4671 142.535 60.2711 141.943C60.0761 141.351 57.3601 142.208 57.3601 142.208Z" fill="#E6E6E6"/>
<g opacity="0.2">
<path d="M56.085 142.629C56.085 142.629 57.531 143.781 60.51 143.108C60.51 143.108 55.811 146.243 56.085 142.629Z" fill="#FAFAFA"/>
</g>
<g opacity="0.2">
<path d="M57.3601 142.208C57.3601 142.208 59.0281 141.918 59.0521 142.614C59.0521 142.614 60.4671 142.535 60.2711 141.943C60.0761 141.351 57.3601 142.208 57.3601 142.208Z" fill="#FAFAFA"/>
</g>
<path d="M55.429 148.88C56.031 149.856 57.259 150.358 58.397 150.222C59.536 150.086 60.561 149.375 61.218 148.435C61.875 147.495 62.188 146.346 62.261 145.202C62.28 144.906 62.303 144.165 61.913 144.05C61.555 143.945 61.334 144.446 61.168 144.679C60.691 145.351 60.185 145.98 59.578 146.541C58.989 147.084 58.338 147.56 57.641 147.954C57.445 148.064 55.535 149.052 55.429 148.88Z" fill="#E6E6E6"/>
<path d="M63.547 144.648C63.905 145.507 63.775 146.552 63.216 147.296C62.849 147.785 62.329 148.134 61.805 148.45C61.441 148.67 60.972 148.878 60.615 148.647C60.23 148.398 60.265 147.832 60.353 147.382C60.489 146.689 60.644 145.999 60.818 145.314C60.961 144.752 61.047 143.812 61.376 143.335C61.686 142.886 62.125 143.152 62.593 143.478C63.01 143.769 63.351 144.176 63.547 144.648Z" fill="#E6E6E6"/>
<g opacity="0.2">
<path d="M55.9132 147.706C55.1822 147.675 54.4912 147.18 54.2252 146.499C54.0292 145.995 54.0322 144.716 54.6852 144.554C54.9742 145.689 55.2242 146.721 55.9132 147.706Z" fill="#FAFAFA"/>
</g>
<g opacity="0.2">
<path d="M60.844 147.655C61.534 147.458 62.108 146.894 62.318 146.208C62.434 145.829 62.287 143.892 61.712 144.706C61.524 144.972 61.559 145.822 61.461 146.166C61.314 146.683 61.107 147.185 60.844 147.655Z" fill="#FAFAFA"/>
</g>
<g opacity="0.2">
<path d="M58.2022 148.851C58.7362 149.305 59.5892 149.327 60.1452 148.901C60.0722 149.276 58.8922 149.589 58.5262 149.696C57.5732 149.976 57.0742 149.557 56.1492 149.171C56.1492 149.171 57.6142 149.394 58.2022 148.851Z" fill="#FAFAFA"/>
</g>
<path d="M56.5471 187.801L56.6371 158.949L58.1171 150.175L58.6791 150.27L57.2061 159.004L57.1021 188.349L56.5471 187.801Z" fill="#E0E0E0"/>
<path d="M57.1481 158.803L56.6961 159.15C56.2431 158.56 55.8351 157.79 55.3631 156.898C54.6331 155.52 53.8051 153.957 52.5481 152.575L52.9701 152.192C54.2751 153.628 55.1211 155.224 55.8671 156.632C56.3261 157.501 56.7241 158.251 57.1481 158.803Z" fill="#E0E0E0"/>
<path d="M57.496 154.933C58.264 154.731 58.952 154.242 59.395 153.583C59.898 152.835 60.073 151.92 60.237 151.034C59.241 151.332 58.171 150.848 57.139 150.967C56.316 151.062 55.549 151.563 55.133 152.28C54.594 153.208 54.375 154.261 54.851 154.686C55.243 155.035 56.469 155.203 57.496 154.933Z" fill="#E6E6E6"/>
<path d="M53.6621 152.941C52.7421 153.524 51.5591 153.672 50.5241 153.334C49.4891 152.997 49.1871 151.441 48.7861 150.428C49.7251 150.235 52.1101 150.37 52.6501 150.424C53.1901 150.478 53.7381 150.722 54.0291 151.18C54.3191 151.638 54.2661 152.326 53.8261 152.643C53.7961 152.625 53.6621 152.941 53.6621 152.941Z" fill="#E6E6E6"/>
<path d="M48.9291 154.626C49.5621 153.86 51.1221 153.305 52.0991 153.483C53.0761 153.661 53.9101 154.334 54.2601 155.133C54.0021 155.753 53.3101 156.104 52.6401 156.152C51.9701 156.2 51.3091 156.002 50.6661 155.806C50.0241 155.61 49.3631 155.411 48.6931 155.459L48.9291 154.626Z" fill="#E6E6E6"/>
<path d="M68.1769 149.666C68.1769 149.666 69.2209 150.601 69.4289 151.903C69.6369 153.206 67.2689 154.765 67.2689 154.765C67.2689 154.765 65.5099 155.328 64.2719 154.232C63.0339 153.135 63.0339 153.135 63.0339 153.135C63.0339 153.135 66.8089 149.621 68.0159 149.946L68.1769 149.666Z" fill="#E6E6E6"/>
<path d="M62.0241 147.737C61.2251 149.709 61.6951 152.65 63.4561 153.363C65.2161 154.076 67.6011 152.291 68.3991 150.319C69.1981 148.348 67.7981 147.701 66.0381 146.988C64.2781 146.275 62.8231 145.765 62.0241 147.737Z" fill="#E6E6E6"/>
<path d="M67.506 148.77C67.506 148.77 65.785 149.446 63.135 147.927C63.135 147.927 66.704 152.304 67.506 148.77Z" fill="#E6E6E6"/>
<path d="M66.41 147.992C66.41 147.992 64.902 147.224 64.673 147.882C64.673 147.882 63.344 147.391 63.705 146.882C64.067 146.375 66.41 147.992 66.41 147.992Z" fill="#E6E6E6"/>
<g opacity="0.2">
<path d="M67.506 148.77C67.506 148.77 65.785 149.446 63.135 147.927C63.135 147.927 66.704 152.304 67.506 148.77Z" fill="#FAFAFA"/>
</g>
<g opacity="0.2">
<path d="M66.41 147.992C66.41 147.992 64.902 147.224 64.673 147.882C64.673 147.882 63.344 147.391 63.705 146.882C64.067 146.375 66.41 147.992 66.41 147.992Z" fill="#FAFAFA"/>
</g>
<path d="M66.2941 154.937C65.4321 155.693 64.1111 155.812 63.0621 155.347C62.0141 154.882 61.2431 153.901 60.8911 152.809C60.5391 151.718 60.5781 150.527 60.8451 149.412C60.9141 149.123 61.1101 148.408 61.5171 148.414C61.8911 148.419 61.9541 148.962 62.0441 149.234C62.3031 150.017 62.6011 150.766 63.0171 151.481C63.4201 152.173 63.9031 152.819 64.4531 153.401C64.6081 153.565 66.1421 155.071 66.2941 154.937Z" fill="#E6E6E6"/>
<path d="M59.78 148.505C59.185 149.221 59.0031 150.258 59.3181 151.134C59.5251 151.709 59.9201 152.196 60.3271 152.652C60.6111 152.969 60.998 153.306 61.407 153.19C61.849 153.065 61.982 152.514 62.029 152.058C62.103 151.355 62.1581 150.651 62.1931 149.945C62.2221 149.366 62.416 148.442 62.241 147.89C62.077 147.37 61.5791 147.495 61.0361 147.669C60.5511 147.823 60.106 148.112 59.78 148.505Z" fill="#E6E6E6"/>
<g opacity="0.2">
<path d="M66.178 153.673C66.886 153.858 67.691 153.589 68.146 153.015C68.482 152.591 68.854 151.368 68.278 151.021C67.667 152.021 67.125 152.934 66.178 153.673Z" fill="#FAFAFA"/>
</g>
<g opacity="0.2">
<path d="M61.4791 152.174C60.8771 151.783 60.4941 151.075 60.4951 150.357C60.4951 149.961 61.2061 148.152 61.5161 149.099C61.6171 149.408 61.3341 150.211 61.3261 150.568C61.3151 151.107 61.3661 151.648 61.4791 152.174Z" fill="#FAFAFA"/>
</g>
<g opacity="0.2">
<path d="M63.652 154.094C63.009 154.371 62.187 154.141 61.78 153.571C61.739 153.95 62.775 154.597 63.094 154.807C63.923 155.355 64.522 155.101 65.52 155.004C65.52 155.004 64.055 154.786 63.652 154.094Z" fill="#FAFAFA"/>
</g>
<path d="M55.7271 183.493L56.0861 182.311L56.5711 180.719L57.1321 178.861L61.618 164.09L62.1791 159.851L62.6771 156.09L62.7801 155.309L63.0591 155.345L63.0631 155.349L63.3461 155.385L63.3381 155.453L63.2381 156.189L62.7091 160.209L62.2751 163.485L62.1791 164.205L62.1441 164.321L57.1291 180.819L56.5631 182.67L56.3041 183.529L55.9461 184.704L55.7271 183.493Z" fill="#E0E0E0"/>
<path d="M61.7341 163.917L62.0641 164.382C62.6701 163.951 63.2871 163.335 64.0001 162.622C65.1031 161.519 66.3541 160.27 67.9621 159.317L67.6721 158.827C66.0021 159.815 64.7251 161.092 63.5981 162.219C62.9021 162.913 62.3021 163.514 61.7341 163.917Z" fill="#E0E0E0"/>
<path d="M62.539 160.115C61.865 159.696 61.351 159.026 61.12 158.267C60.859 157.404 60.961 156.478 61.065 155.583C61.93 156.16 63.094 156.013 64.046 156.43C64.805 156.762 65.39 157.467 65.577 158.274C65.819 159.32 65.719 160.39 65.139 160.657C64.663 160.875 63.441 160.675 62.539 160.115Z" fill="#E6E6E6"/>
<path d="M66.7901 159.339C67.4991 160.166 68.5851 160.656 69.6741 160.638C70.7631 160.62 71.5091 159.221 72.1901 158.371C71.3491 157.911 69.0301 157.338 68.4981 157.231C67.9661 157.124 67.3701 157.196 66.9581 157.548C66.5461 157.901 66.3951 158.574 66.7221 159.006C66.7541 158.997 66.7901 159.339 66.7901 159.339Z" fill="#E6E6E6"/>
<path d="M70.818 162.341C70.438 161.423 69.111 160.433 68.124 160.316C67.138 160.199 66.143 160.597 65.574 161.258C65.639 161.927 66.197 162.465 66.823 162.708C67.449 162.951 68.139 162.956 68.811 162.957C69.483 162.958 70.172 162.963 70.799 163.205L70.818 162.341Z" fill="#E6E6E6"/>
<path d="M47.9231 148.513C47.9231 148.513 46.7761 149.319 46.4161 150.588C46.0561 151.857 48.2251 153.684 48.2251 153.684C48.2251 153.684 49.9051 154.45 51.2631 153.506C52.6211 152.562 52.6211 152.562 52.6211 152.562C52.6211 152.562 49.2851 148.629 48.0481 148.81L47.9231 148.513Z" fill="#E6E6E6"/>
<path d="M54.2601 147.32C54.8211 149.372 54.0091 152.238 52.1771 152.739C50.3451 153.24 48.187 151.187 47.626 149.135C47.064 147.083 48.53 146.606 50.362 146.104C52.194 145.602 53.6981 145.268 54.2601 147.32Z" fill="#E6E6E6"/>
<path d="M48.6951 147.702C48.6951 147.702 50.3251 148.575 53.1351 147.378C53.1351 147.378 49.0751 151.306 48.6951 147.702Z" fill="#E6E6E6"/>
<path d="M49.874 147.058C49.874 147.058 51.462 146.473 51.611 147.153C51.611 147.153 52.989 146.821 52.69 146.274C52.391 145.728 49.874 147.058 49.874 147.058Z" fill="#E6E6E6"/>
<g opacity="0.2">
<path d="M48.6951 147.702C48.6951 147.702 50.3251 148.575 53.1351 147.378C53.1351 147.378 49.0751 151.306 48.6951 147.702Z" fill="#FAFAFA"/>
</g>
<g opacity="0.2">
<path d="M49.874 147.058C49.874 147.058 51.462 146.473 51.611 147.153C51.611 147.153 52.989 146.821 52.69 146.274C52.391 145.728 49.874 147.058 49.874 147.058Z" fill="#FAFAFA"/>
</g>
<path d="M49.1731 153.969C49.9411 154.821 51.2381 155.094 52.3341 154.756C53.4301 154.418 54.3101 153.534 54.7881 152.491C55.2651 151.448 55.3671 150.262 55.2331 149.123C55.1981 148.828 55.0881 148.095 54.6831 148.053C54.3121 148.014 54.1851 148.546 54.0631 148.806C53.7141 149.553 53.3301 150.262 52.8331 150.923C52.3511 151.563 51.7961 152.148 51.1811 152.661C51.0091 152.804 49.3091 154.119 49.1731 153.969Z" fill="#E6E6E6"/>
<path d="M56.3989 148.347C56.9059 149.128 56.9649 150.179 56.5489 151.012C56.2759 151.559 55.8269 151.996 55.3679 152.4C55.0489 152.681 54.6249 152.971 54.2319 152.808C53.8079 152.632 53.7409 152.069 53.7469 151.61C53.7559 150.904 53.7849 150.197 53.8329 149.492C53.8719 148.914 53.7879 147.973 54.0259 147.445C54.2499 146.948 54.7299 147.131 55.2489 147.367C55.7129 147.579 56.1209 147.918 56.3989 148.347Z" fill="#E6E6E6"/>
<g opacity="0.2">
<path d="M49.4381 152.727C48.7131 152.828 47.9451 152.465 47.5611 151.843C47.2771 151.382 47.0511 150.124 47.6641 149.847C48.1521 150.912 48.5831 151.882 49.4381 152.727Z" fill="#FAFAFA"/>
</g>
<g opacity="0.2">
<path d="M54.28 151.791C54.924 151.473 55.387 150.816 55.47 150.102C55.516 149.708 55.023 147.829 54.603 148.733C54.466 149.029 54.653 149.859 54.619 150.215C54.568 150.751 54.454 151.281 54.28 151.791Z" fill="#FAFAFA"/>
</g>
<g opacity="0.2">
<path d="M51.8961 153.442C52.5021 153.792 53.3461 153.661 53.8161 153.142C53.8121 153.523 52.7071 154.044 52.3661 154.215C51.4791 154.662 50.9131 154.339 49.9331 154.125C49.9331 154.125 51.4151 154.082 51.8961 153.442Z" fill="#FAFAFA"/>
</g>
<path d="M57.2651 192.056L52.1711 163.657L52.0491 154.76L52.6191 154.752L52.7401 163.609L57.9101 192.495L57.2651 192.056Z" fill="#E0E0E0"/>
<path d="M52.646 163.422L52.263 163.845C51.711 163.346 51.172 162.662 50.547 161.869C49.581 160.644 48.486 159.256 47.001 158.122L47.347 157.669C48.889 158.847 50.008 160.265 50.995 161.516C51.604 162.288 52.13 162.955 52.646 163.422Z" fill="#E0E0E0"/>
<path d="M52.294 159.552C53.013 159.215 53.602 158.61 53.92 157.883C54.281 157.057 54.288 156.126 54.29 155.224C53.364 155.696 52.224 155.412 51.23 155.714C50.437 155.955 49.773 156.586 49.493 157.366C49.13 158.376 49.103 159.451 49.648 159.784C50.095 160.058 51.332 160.003 52.294 159.552Z" fill="#E6E6E6"/>
<path d="M48.164 158.282C47.363 159.02 46.226 159.378 45.147 159.233C44.068 159.087 43.491 157.611 42.915 156.686C43.804 156.328 46.175 156.032 46.716 155.988C47.257 155.944 47.84 156.085 48.208 156.484C48.576 156.883 48.647 157.569 48.271 157.96C48.24 157.946 48.164 158.282 48.164 158.282Z" fill="#E6E6E6"/>
<path d="M43.811 160.79C44.296 159.923 45.731 159.096 46.724 159.096C47.717 159.095 48.658 159.607 49.146 160.331C49.003 160.987 48.385 161.456 47.735 161.624C47.084 161.792 46.399 161.716 45.732 161.638C45.065 161.56 44.379 161.484 43.728 161.651L43.811 160.79Z" fill="#E6E6E6"/>
<path d="M59.3552 174.633H53.3762C52.9282 174.624 52.5281 174.912 52.3941 175.34C51.9031 176.891 50.8582 180.97 50.8582 187.395C50.8582 194.454 52.6992 203.824 53.2782 206.592C53.3752 207.058 53.7842 207.393 54.2602 207.397H58.4231C58.8991 207.393 59.3082 207.058 59.4052 206.592C59.9842 203.824 61.8251 194.453 61.8251 187.395C61.8251 180.97 60.7792 176.891 60.2892 175.34C60.1582 174.93 59.7842 174.647 59.3552 174.633Z" fill="#F0F0F0"/>
<path d="M224 372.016C331.082 372.016 417.889 366.947 417.889 360.693C417.889 354.44 331.082 349.37 224 349.37C116.918 349.37 30.1108 354.44 30.1108 360.693C30.1108 366.947 116.918 372.016 224 372.016Z" fill="#F5F5F5"/>
<path d="M94.783 321.773C94.443 321.751 94.178 321.463 94.186 321.119C94.926 291.729 96.442 243.517 96.521 243.253C96.622 242.915 96.978 242.731 97.315 242.823C97.652 242.924 97.846 243.279 97.747 243.617C97.728 243.682 96.197 292.061 95.464 321.152C95.456 321.504 95.162 321.783 94.809 321.775C94.8 321.774 94.792 321.773 94.783 321.773Z" fill="#263238"/>
<path d="M90.8328 223.631C91.0788 225.895 93.7888 233.742 96.0528 233.496C98.3158 233.25 99.2758 225.003 99.0298 222.739C98.7838 220.476 96.7488 218.84 94.4858 219.086C92.2218 219.333 90.5868 221.368 90.8328 223.631Z" fill="#407BFF"/>
<path d="M101.819 248.385C101.573 246.121 98.8628 238.274 96.5988 238.52C94.3348 238.766 93.3748 247.013 93.6208 249.277C93.8668 251.54 95.9018 253.176 98.1648 252.93C100.43 252.684 102.066 250.65 101.819 248.385Z" fill="#407BFF"/>
<path d="M83.9489 241.502C86.2129 241.256 94.0599 238.546 93.8139 236.282C93.5679 234.019 85.3209 233.059 83.0579 233.305C80.7939 233.551 79.1589 235.586 79.4049 237.849C79.6509 240.113 81.6849 241.748 83.9489 241.502Z" fill="#407BFF"/>
<path d="M108.703 230.515C106.439 230.761 98.5919 233.471 98.8379 235.735C99.0849 237.999 107.331 238.959 109.595 238.712C111.859 238.466 113.494 236.431 113.248 234.168C113.002 231.905 110.966 230.269 108.703 230.515Z" fill="#407BFF"/>
<path d="M83.689 231.141C85.464 232.568 92.929 236.201 94.356 234.426C95.783 232.651 90.63 226.141 88.856 224.714C87.081 223.288 84.4859 223.57 83.0589 225.345C81.6329 227.119 81.915 229.714 83.689 231.141Z" fill="#407BFF"/>
<path d="M108.962 240.876C107.187 239.449 99.7217 235.817 98.2947 237.592C96.8687 239.366 102.021 245.876 103.796 247.303C105.571 248.729 108.166 248.447 109.592 246.673C111.02 244.898 110.737 242.302 108.962 240.876Z" fill="#407BFF"/>
<path d="M91.4589 248.645C92.8849 246.87 96.5179 239.405 94.7429 237.978C92.9679 236.551 86.4589 241.704 85.0319 243.479C83.6049 245.254 83.8879 247.849 85.6629 249.275C87.4369 250.702 90.0319 250.42 91.4589 248.645Z" fill="#407BFF"/>
<path d="M101.194 223.372C99.7679 225.147 96.1349 232.612 97.9099 234.039C99.6849 235.465 106.195 230.313 107.621 228.538C109.048 226.763 108.765 224.168 106.99 222.742C105.216 221.315 102.62 221.598 101.194 223.372Z" fill="#407BFF"/>
<g opacity="0.6">
<path d="M90.8328 223.631C91.0788 225.895 93.7888 233.742 96.0528 233.496C98.3158 233.25 99.2758 225.003 99.0298 222.739C98.7838 220.476 96.7488 218.84 94.4858 219.086C92.2218 219.333 90.5868 221.368 90.8328 223.631Z" fill="white"/>
<path d="M101.819 248.385C101.573 246.121 98.8628 238.274 96.5988 238.52C94.3348 238.766 93.3748 247.013 93.6208 249.277C93.8668 251.54 95.9018 253.176 98.1648 252.93C100.43 252.684 102.066 250.65 101.819 248.385Z" fill="white"/>
<path d="M83.9489 241.502C86.2129 241.256 94.0599 238.546 93.8139 236.282C93.5679 234.019 85.3209 233.059 83.0579 233.305C80.7939 233.551 79.1589 235.586 79.4049 237.849C79.6509 240.113 81.6849 241.748 83.9489 241.502Z" fill="white"/>
<path d="M108.703 230.515C106.439 230.761 98.5919 233.471 98.8379 235.735C99.0849 237.999 107.331 238.959 109.595 238.712C111.859 238.466 113.494 236.431 113.248 234.168C113.002 231.905 110.966 230.269 108.703 230.515Z" fill="white"/>
<path d="M83.689 231.141C85.464 232.568 92.929 236.201 94.356 234.426C95.783 232.651 90.63 226.141 88.856 224.714C87.081 223.288 84.4859 223.57 83.0589 225.345C81.6329 227.119 81.915 229.714 83.689 231.141Z" fill="white"/>
<path d="M108.962 240.876C107.187 239.449 99.7217 235.817 98.2947 237.592C96.8687 239.366 102.021 245.876 103.796 247.303C105.571 248.729 108.166 248.447 109.592 246.673C111.02 244.898 110.737 242.302 108.962 240.876Z" fill="white"/>
<path d="M91.4589 248.645C92.8849 246.87 96.5179 239.405 94.7429 237.978C92.9679 236.551 86.4589 241.704 85.0319 243.479C83.6049 245.254 83.8879 247.849 85.6629 249.275C87.4369 250.702 90.0319 250.42 91.4589 248.645Z" fill="white"/>
<path d="M101.194 223.372C99.7679 225.147 96.1349 232.612 97.9099 234.039C99.6849 235.465 106.195 230.313 107.621 228.538C109.048 226.763 108.765 224.168 106.99 222.742C105.216 221.315 102.62 221.598 101.194 223.372Z" fill="white"/>
</g>
<path d="M91.4718 236.536C91.7628 239.217 94.1728 241.154 96.8538 240.862C99.5348 240.571 101.472 238.161 101.18 235.48C100.888 232.799 98.4778 230.862 95.7978 231.154C93.1168 231.446 91.1808 233.855 91.4718 236.536Z" fill="#407BFF"/>
<path d="M91.952 300.238C86.318 300.362 76.678 295.157 72.885 290.077C69.036 284.922 79.83 288.096 78.711 284.043C77.591 279.99 64.303 283.027 61.832 277.224C59.361 271.421 68.959 272.729 68.569 269.76C68.18 266.791 58.242 267.424 55.033 261.257C51.824 255.09 60.577 258.524 59.197 255.969C57.817 253.413 46.827 242.672 51.407 240.413C55.986 238.154 66.292 249.344 69.737 250.587C73.182 251.829 73.964 244.076 78.453 247.77C82.942 251.465 79.638 267.676 84.916 269.798C88.847 271.379 87.155 263.965 91.681 265.824C99.605 269.078 94.24 300.188 91.952 300.238Z" fill="#407BFF"/>
<g opacity="0.2">
<path d="M91.952 300.238C86.318 300.362 76.678 295.157 72.885 290.077C69.036 284.922 79.83 288.096 78.711 284.043C77.591 279.99 64.303 283.027 61.832 277.224C59.361 271.421 68.959 272.729 68.569 269.76C68.18 266.791 58.242 267.424 55.033 261.257C51.824 255.09 60.577 258.524 59.197 255.969C57.817 253.413 46.827 242.672 51.407 240.413C55.986 238.154 66.292 249.344 69.737 250.587C73.182 251.829 73.964 244.076 78.453 247.77C82.942 251.465 79.638 267.676 84.916 269.798C88.847 271.379 87.155 263.965 91.681 265.824C99.605 269.078 94.24 300.188 91.952 300.238Z" fill="white"/>
</g>
<path d="M100.049 293.089C100.143 293.247 99.2999 294.046 102.082 294.161C108.933 294.443 121.046 293.981 125.595 287.752C132.09 278.859 117.11 279.675 118.567 274.771C120.024 269.867 136.116 273.872 139.257 266.871C142.398 259.87 130.694 261.237 131.236 257.635C131.779 254.033 144.059 258.7 148.106 251.274C152.153 243.848 141.426 247.821 143.164 244.744C144.902 241.668 158.52 228.859 153.003 226.004C147.486 223.149 134.689 236.52 130.469 237.951C126.249 239.381 125.273 226.267 119.726 230.656C114.179 235.045 117.819 254.841 111.35 257.299C106.531 259.13 109.16 252.035 103.214 252.307C95.1359 252.678 92.4799 280.436 100.049 293.089Z" fill="#407BFF"/>
<g opacity="0.3">
<path d="M100.049 293.089C100.143 293.247 99.2999 294.046 102.082 294.161C108.933 294.443 121.046 293.981 125.595 287.752C132.09 278.859 117.11 279.675 118.567 274.771C120.024 269.867 136.116 273.872 139.257 266.871C142.398 259.87 130.694 261.237 131.236 257.635C131.779 254.033 144.059 258.7 148.106 251.274C152.153 243.848 141.426 247.821 143.164 244.744C144.902 241.668 158.52 228.859 153.003 226.004C147.486 223.149 134.689 236.52 130.469 237.951C126.249 239.381 125.273 226.267 119.726 230.656C114.179 235.045 117.819 254.841 111.35 257.299C106.531 259.13 109.16 252.035 103.214 252.307C95.1359 252.678 92.4799 280.436 100.049 293.089Z" fill="white"/>
</g>
<path d="M94.9149 317.332C94.9029 317.331 94.8909 317.33 94.8779 317.329C94.6339 317.3 94.4599 317.078 94.4899 316.833C100.113 270.817 126.62 252.113 126.886 251.93C127.089 251.792 127.366 251.842 127.505 252.045C127.644 252.247 127.593 252.525 127.39 252.664C127.126 252.845 100.945 271.347 95.3739 316.941C95.3459 317.173 95.1449 317.341 94.9149 317.332Z" fill="#263238"/>
<path d="M120.855 258.323C120.674 258.316 120.508 258.197 120.449 258.016C120.373 257.782 120.501 257.531 120.735 257.455C120.9 257.401 124.847 256.153 131.314 257.526C131.555 257.577 131.709 257.814 131.658 258.054C131.607 258.295 131.37 258.45 131.13 258.398C124.915 257.08 121.049 258.291 121.011 258.303C120.959 258.318 120.906 258.325 120.855 258.323Z" fill="#263238"/>
<path d="M115.955 263.912C115.719 263.902 115.531 263.71 115.528 263.471C115.391 249.554 123.447 238.681 123.529 238.573C123.676 238.377 123.956 238.337 124.153 238.485C124.35 238.633 124.389 238.912 124.242 239.109C124.162 239.215 116.286 249.858 116.42 263.463C116.422 263.709 116.225 263.91 115.979 263.913C115.971 263.913 115.963 263.912 115.955 263.912Z" fill="#263238"/>
<path d="M108.061 275.691C107.949 275.686 107.838 275.64 107.755 275.551C107.586 275.373 107.594 275.091 107.773 274.921C107.833 274.865 113.797 269.351 121.607 272.149C121.838 272.232 121.959 272.487 121.876 272.719C121.793 272.95 121.538 273.072 121.306 272.988C114.005 270.369 108.44 275.516 108.385 275.569C108.295 275.655 108.177 275.695 108.061 275.691Z" fill="#263238"/>
<path d="M103.935 283.908C103.769 283.901 103.613 283.801 103.544 283.638C103.419 283.346 100.498 276.349 102.108 266.38C102.148 266.138 102.367 265.968 102.619 266.012C102.862 266.051 103.027 266.279 102.988 266.522C101.422 276.222 104.334 283.219 104.364 283.288C104.46 283.514 104.355 283.776 104.129 283.872C104.065 283.899 103.999 283.91 103.935 283.908Z" fill="#263238"/>
<path d="M95.0939 333.769C94.8629 333.76 94.6749 333.572 94.6679 333.338L94.0899 321.15C92.3849 280.625 64.5869 253.062 64.3059 252.789C64.1299 252.617 64.1259 252.335 64.2979 252.159C64.4709 251.983 64.7519 251.98 64.9279 252.151C65.2109 252.427 93.2589 280.225 94.9799 321.118L95.5579 333.311C95.5659 333.557 95.3729 333.762 95.1269 333.771C95.1159 333.77 95.1049 333.769 95.0939 333.769Z" fill="#263238"/>
<path d="M75.7709 268.012C75.7469 268.011 75.7219 268.008 75.6979 268.003C75.6589 267.995 75.6109 267.976 75.5679 267.953L75.4239 267.895C71.7849 266.383 67.7189 265.599 63.9769 265.681C63.7269 265.693 63.5269 265.492 63.5219 265.245C63.5159 264.999 63.7109 264.796 63.9569 264.79C67.8209 264.707 72.0149 265.514 75.7659 267.072L75.9139 267.133C75.9409 267.143 75.9659 267.155 75.9899 267.169C76.1649 267.258 76.2659 267.456 76.2239 267.657C76.1789 267.875 75.9839 268.021 75.7709 268.012Z" fill="#263238"/>
<path d="M79.7019 273.231C79.6949 273.231 79.6869 273.23 79.6799 273.229C79.4349 273.208 79.2539 272.99 79.2759 272.746C80.3519 260.785 74.1579 250.944 74.0949 250.846C73.9629 250.639 74.0229 250.363 74.2299 250.231C74.4389 250.099 74.7129 250.159 74.8449 250.366C74.9089 250.466 81.2679 260.553 80.1629 272.826C80.1419 273.064 79.9379 273.241 79.7019 273.231Z" fill="#263238"/>
<path d="M83.7579 280.16C83.6499 280.156 83.5419 280.111 83.4599 280.029C83.4149 279.983 78.9009 275.528 72.2949 277.288C72.0559 277.353 71.8129 277.209 71.7499 276.972C71.6869 276.734 71.8279 276.49 72.0659 276.427C79.1869 274.527 83.8979 279.203 84.0939 279.403C84.2669 279.578 84.2649 279.859 84.0899 280.033C83.9979 280.122 83.8779 280.165 83.7579 280.16Z" fill="#263238"/>
<path d="M88.9069 291.58C88.8429 291.577 88.7789 291.561 88.7189 291.53C88.5009 291.416 88.4169 291.147 88.5309 290.929C88.5619 290.869 91.6209 284.89 90.9239 276.264C90.9039 276.019 91.0859 275.804 91.3319 275.785C91.5789 275.755 91.7918 275.947 91.8118 276.193C92.5318 285.089 89.4519 291.091 89.3209 291.343C89.2379 291.499 89.0739 291.586 88.9069 291.58Z" fill="#263238"/>
<path d="M120.157 335.688C120.157 349.902 113.764 361.43 94.4029 361.43C75.9249 361.43 68.6489 349.902 68.6489 335.688C68.6489 330.327 70.2959 325.34 73.0989 321.217H115.707C118.51 325.34 120.157 330.327 120.157 335.688Z" fill="#407BFF"/>
<path opacity="0.7" d="M120.157 335.688C120.157 349.902 113.764 361.43 94.4029 361.43C75.9249 361.43 68.6489 349.902 68.6489 335.688C68.6489 330.327 70.2959 325.34 73.0989 321.217H115.707C118.51 325.34 120.157 330.327 120.157 335.688Z" fill="white"/>
<path d="M268.101 348.863L278.061 347.409L275.546 324.108L265.585 325.562L268.101 348.863Z" fill="#E8BFBF"/>
<path d="M285.719 347.758C286.584 347.694 287.402 347.339 288.039 346.75C288.311 346.407 288.397 345.952 288.269 345.534C288.212 345.272 288.023 345.058 287.769 344.97C286.438 344.495 282.795 347.179 282.388 347.482C282.309 347.546 282.275 347.649 282.3 347.747C282.334 347.841 282.423 347.904 282.523 347.905C283.59 347.953 284.66 347.904 285.719 347.758ZM287.12 345.422C287.27 345.385 287.427 345.39 287.574 345.434C287.679 345.467 287.757 345.554 287.78 345.662C287.862 345.938 287.807 346.237 287.632 346.466C287.12 347.104 285.494 347.464 283.226 347.463C284.407 346.559 285.734 345.864 287.15 345.407L287.12 345.422Z" fill="#407BFF"/>
<path d="M282.578 347.916L282.66 347.878C283.765 347.15 285.758 344.613 285.384 343.517C285.269 343.272 285.061 342.958 284.393 342.995C283.91 343.003 283.452 343.217 283.135 343.582C282.056 344.82 282.27 347.548 282.273 347.659C282.27 347.743 282.307 347.823 282.373 347.874C282.431 347.92 282.507 347.935 282.578 347.916ZM284.253 343.496L284.386 343.434C284.826 343.416 284.877 343.579 284.891 343.634C285.126 344.297 283.805 346.246 282.705 347.146C282.603 345.999 282.87 344.849 283.465 343.863C283.678 343.641 283.966 343.506 284.273 343.486L284.253 343.496Z" fill="#407BFF"/>
<path d="M277.043 343.284L268.21 345.389C267.812 345.471 267.541 345.841 267.584 346.245L267.869 359.026C267.992 359.922 268.818 360.548 269.713 360.425C269.775 360.416 269.837 360.404 269.897 360.389C273.723 359.436 275.529 358.786 280.394 357.664C283.375 356.978 292.822 356.266 296.692 354.542C300.561 352.819 299.054 348.897 297.289 349.267C291.613 350.488 284.32 348.058 280.177 344.359C279.615 344.084 277.649 343.127 277.043 343.284Z" fill="#263238"/>
<path opacity="0.2" d="M275.546 324.108L276.842 336.118L266.883 337.583L265.576 325.575L275.546 324.108Z" fill="black"/>
<path d="M280.866 331.175L262.437 334.616C262.437 334.616 253.488 321.84 251.799 312.767C250.041 303.32 251.92 271.158 251.799 270.731C246.586 253.134 232.424 207.53 225.585 190.75C221.798 181.45 219.14 175.189 219.14 175.189L221.055 174.759L236.098 168.597L247.06 170.663C247.06 170.663 280.373 238.025 283.865 263.366C286.471 282.287 280.866 331.175 280.866 331.175Z" fill="#407BFF"/>
<path opacity="0.2" d="M247.458 255.491C242.245 237.894 231.731 211.199 224.891 194.418L220.36 178.428L219.489 175.352L221.075 178.258L238.929 217.804C246.807 232.946 247.578 255.918 247.458 255.491Z" fill="black"/>
<path d="M166.572 343.376L175.449 347.116L184.923 326.789L176.046 323.049L166.572 343.376Z" fill="#E8BFBF"/>
<path d="M181.233 351.371C181.937 351.811 182.769 351.999 183.594 351.904C183.998 351.793 184.321 351.49 184.459 351.095C184.564 350.86 184.538 350.588 184.392 350.377C183.633 349.258 179.303 349.272 178.818 349.275C178.721 349.28 178.636 349.34 178.6 349.43C178.573 349.522 178.606 349.621 178.683 349.678C179.479 350.319 180.333 350.886 181.233 351.371ZM183.635 350.359C183.771 350.415 183.89 350.507 183.979 350.625C184.041 350.71 184.053 350.822 184.009 350.917C183.916 351.177 183.705 351.376 183.44 351.454C182.684 351.657 181.225 351.016 179.475 349.734C180.898 349.704 182.316 349.917 183.667 350.364L183.635 350.359Z" fill="#407BFF"/>
<path d="M178.719 349.718L178.804 349.735C180.069 349.798 183.041 348.965 183.372 347.907C183.422 347.653 183.438 347.292 182.902 346.944C182.524 346.677 182.05 346.583 181.599 346.686C180.066 347.032 178.689 349.26 178.628 349.347C178.578 349.41 178.562 349.493 178.584 349.57C178.602 349.638 178.653 349.692 178.719 349.718ZM182.51 347.252L182.648 347.279C182.998 347.514 182.946 347.668 182.925 347.719C182.731 348.364 180.61 349.122 179.252 349.195C179.822 348.252 180.677 347.515 181.694 347.09C181.984 347.039 182.283 347.098 182.531 347.256L182.51 347.252Z" fill="#407BFF"/>
<path d="M177.063 343.013L169.053 339.646C168.7 339.485 168.281 339.617 168.086 339.953L161.083 349.982C160.672 350.743 160.955 351.693 161.716 352.105C161.769 352.134 161.823 352.159 161.879 352.181C165.372 353.607 167.133 354.126 171.524 356.01C174.214 357.165 181.911 361.955 185.872 362.811C189.833 363.668 190.887 359.787 189.314 359.075C184.241 356.809 179.983 350.811 178.875 345.614C178.596 345.085 177.619 343.235 177.063 343.013Z" fill="#263238"/>
<path opacity="0.2" d="M185.311 327.028L180.175 337.384L171.387 333.44L176.514 323.08L185.311 327.028Z" fill="black"/>
<path d="M187.16 338.314L169.48 328.889C169.48 328.889 166.09 316.302 169.48 308.273C176.004 292.821 192.977 270.102 193.092 269.674C197.621 251.888 205.566 203.182 208.279 185.265C209.786 175.337 210.671 173.195 210.671 173.195L212.536 173.806L239.589 173.86C239.589 173.86 244.693 214.827 225.133 278.257C220.266 294.039 212.113 307.161 198.698 324.912C193.603 331.652 187.16 338.314 187.16 338.314Z" fill="#407BFF"/>
<path d="M263.556 140.386C263.754 137.348 265.769 133.435 267.507 131.626C268.065 131.048 270.174 130.168 271.369 129.39C277.243 125.536 288.999 120.729 288.999 120.729L292.627 123.892C292.627 123.892 285.466 130.814 281.206 134.133C280.369 134.785 279.399 135.577 278.377 136.414C276.525 137.96 267.802 143.713 266.137 145.155L263.556 140.386Z" fill="#E8BFBF"/>
<path d="M299.342 118.94L292.632 123.898L288.867 121.126C288.867 121.126 290.403 119.169 291.982 117.653C292.675 116.987 293.049 116.07 293.058 115.109C293.071 113.631 293.294 111.916 294.097 110.658C294.117 110.629 294.127 110.599 294.146 110.579C295.601 108.387 299.002 109.046 299.69 111.582L300.659 115.159C301.04 116.571 300.518 118.072 299.342 118.94Z" fill="#E8BFBF"/>
<path d="M265.702 141.727L263.933 143.349C263.382 142.907 262.508 142.199 261.407 141.285C252.787 134.129 231.177 116.771 239.792 111.817C247.176 107.571 255.018 120.565 258.93 124.467C259.726 125.273 261.908 127.789 263.668 130.945C265.505 134.256 266.872 138.267 265.702 141.727Z" fill="#263238"/>
<path d="M263.663 129.391C260.604 131.627 257.992 134.473 256.027 137.712C257.444 142.409 261.013 146.496 265.514 148.448C267.98 142.725 269.129 136.572 268.64 130.359C267.079 130.023 265.223 129.727 263.663 129.391Z" fill="#264A99"/>
<path d="M216.208 110.805C213.124 111.796 209.594 111.003 207.615 113.567C205.636 116.131 205.041 119.515 205.044 122.754C205.048 127.259 206.078 131.692 207.103 136.078C208.345 141.397 209.587 146.715 210.829 152.034C211.678 155.67 210.785 172.576 211.691 172.859C211.691 172.859 239.96 172.305 247.048 171.312C247.048 171.312 247.664 153.933 248.233 148.014C248.359 146.701 250.353 141.125 250.587 139.724C251.691 133.122 249.527 128.466 247.241 122.174C247.241 122.174 242.235 112.095 239.791 111.82C235.44 111.329 224.801 108.044 216.208 110.805Z" fill="#264A99"/>
<path d="M215.018 119.145C214.918 118.558 209.901 108.423 205.093 115.507C198.4 125.367 197.949 137.747 197.949 137.747C197.949 137.747 193.836 149.785 196.702 152.414C199.568 155.043 202.659 156.735 204.662 155.244C206.664 153.753 207.963 150.774 207.963 150.774C207.963 150.774 216.776 129.46 215.018 119.145Z" fill="#264A99"/>
<path d="M214.695 107.046C212.584 108.693 212.862 112.51 215.189 113.833C214.604 115.877 215.288 118.229 216.878 119.641C218.468 121.053 220.884 121.454 222.845 120.631C221.997 122.15 222.953 124.155 224.416 125.095C225.879 126.035 227.687 126.206 229.41 126.437C231.134 126.668 232.955 127.039 234.206 128.247C235.988 125.683 237.769 123.12 239.551 120.556C240.245 119.558 240.964 118.487 241.018 117.273C241.072 116.058 240.148 114.719 238.936 114.808C240.169 113.523 240.194 111.27 238.99 109.958C237.786 108.646 235.539 108.478 234.154 109.596C234.402 108.569 233.8 107.478 232.933 106.874C232.065 106.27 230.985 106.064 229.933 105.961L214.695 107.046Z" fill="#264A99"/>
<path d="M217.902 93.9949C219.293 99.0979 220.981 108.507 217.606 112.226C217.606 112.226 227.154 116.049 233.94 123.721C237.098 120.653 236.77 117.206 235.803 114.685C235.053 112.732 233.442 111.282 231.516 110.464C227.8 108.885 227.768 105.226 228.386 101.719L217.902 93.9949Z" fill="#E8BFBF"/>
<path opacity="0.2" d="M219.982 102.685L223.493 103.638C224.997 104.046 226.569 104.139 228.11 103.912C228.096 104.668 227.96 106.274 228.436 107.121C226.42 108.094 223.009 107.426 221.502 105.65C220.878 104.957 220.322 103.554 219.982 102.685Z" fill="black"/>
<path d="M211.087 89.6509C214.804 97.4949 216.21 100.892 221.932 103.389C230.553 107.163 239.348 100.862 238.045 92.0659C236.874 84.1549 230.989 72.6549 221.839 72.6139C215.301 72.5499 209.948 77.7969 209.884 84.3359C209.867 86.1759 210.278 87.9959 211.087 89.6509Z" fill="#E8BFBF"/>
<path d="M215.171 74.6709C212.463 73.4059 209.097 74.4379 206.842 76.4219C204.547 78.4409 203.15 81.2649 201.811 84.0119C201.083 85.5049 200.348 87.0179 200.011 88.6449C199.674 90.2719 199.771 92.0509 200.631 93.4729C201.473 94.8669 203.041 95.7819 204.662 95.8769C205.594 95.9309 206.685 96.6049 206.987 97.4889C207.267 98.3099 207.134 99.1989 207.003 100.052C206.876 100.878 206.755 101.74 207.014 102.533C207.446 103.853 208.858 104.654 210.24 104.788C211.622 104.922 212.995 104.522 214.326 104.126C215.17 103.875 216.019 104.02 216.675 104.608C216.839 104.755 216.973 104.931 217.075 105.125C217.489 105.912 218.688 105.788 219.033 104.968C220.243 102.093 218.482 97.4959 215.859 93.9879C214.467 92.1259 214.543 92.6009 213.996 90.3409C213.541 88.4609 214.23 86.4989 215.072 84.7569C216.196 82.4339 217.64 80.1679 217.194 77.3949C217.005 76.2219 216.247 75.1729 215.171 74.6709Z" fill="#263238"/>
<path d="M211.322 97.6749C212.555 98.9869 214.258 99.7559 216.058 99.8129C218.446 99.8649 219.052 97.5869 217.899 95.6439C216.858 93.8919 214.362 91.7619 212.2 92.6079C210.038 93.4549 209.818 96.0399 211.322 97.6749Z" fill="#E8BFBF"/>
<path d="M226.033 88.2549C226.309 88.9419 226.855 89.3049 227.287 89.1279C227.719 88.9509 227.825 88.2989 227.586 87.6329C227.346 86.9669 226.766 86.5899 226.332 86.7599C225.899 86.9289 225.775 87.6019 226.033 88.2549Z" fill="#263238"/>
<path d="M233.352 85.1049C233.621 85.7939 234.174 86.1549 234.599 85.9799C235.024 85.8049 235.137 85.1509 234.898 84.4849C234.659 83.8189 234.078 83.4419 233.651 83.6099C233.225 83.7769 233.086 84.4529 233.352 85.1049Z" fill="#263238"/>
<path d="M233.463 83.7279L234.853 82.6399C234.853 82.6399 234.552 84.1889 233.463 83.7279Z" fill="#263238"/>
<path d="M231.452 86.5739C233.151 88.2509 234.43 88.5579 236.27 89.7099C236.217 91.3439 234.679 91.7189 234.679 91.7189L231.452 86.5739Z" fill="#ED847E"/>
<path d="M233.903 94.9209C234.22 94.8019 234.527 94.6569 234.821 94.4869C234.917 94.4359 234.953 94.3159 234.902 94.2209C234.9 94.2179 234.898 94.2149 234.897 94.2109C234.84 94.1159 234.72 94.0789 234.619 94.1259C233.068 95.0269 231.179 95.1269 229.542 94.3939C229.44 94.3399 229.313 94.3779 229.258 94.4809C229.203 94.5829 229.242 94.7109 229.345 94.7649C230.781 95.4249 232.423 95.4809 233.903 94.9209Z" fill="#263238"/>
<path d="M225.76 82.8099C225.75 82.9969 225.621 83.1569 225.44 83.2069C223.522 83.7759 222.671 86.2099 222.667 86.2299C222.591 86.4559 222.347 86.5779 222.121 86.5019C221.895 86.4259 221.773 86.1819 221.848 85.9559C221.922 85.8639 222.851 83.0719 225.188 82.3739C225.416 82.3099 225.654 82.4389 225.724 82.6659C225.748 82.7099 225.76 82.7599 225.76 82.8099Z" fill="#263238"/>
<path d="M234.609 81.6329C234.449 81.7309 234.245 81.7159 234.101 81.5959C232.54 80.3439 230.055 81.0319 230.037 81.0399C229.808 81.1069 229.568 80.9749 229.502 80.7459C229.435 80.5169 229.567 80.2769 229.796 80.2109C229.914 80.2189 232.737 79.3909 234.643 80.9149C234.826 81.0659 234.855 81.3349 234.709 81.5219C234.684 81.5659 234.65 81.6039 234.609 81.6329Z" fill="#263238"/>
<path d="M226.158 86.8749L227.549 85.7939C227.549 85.7939 227.234 87.3399 226.158 86.8749Z" fill="#263238"/>
<path d="M215.768 73.3609C213.584 73.5359 211.511 74.7789 210.326 76.6219C209.531 77.8589 209.251 79.7389 210.427 80.6219C210.977 81.0349 211.702 81.1099 212.388 81.1699C215.432 81.4369 219.184 79.0859 219.184 79.0859C218.011 74.1159 228.438 70.2699 233.578 77.9689C235.088 80.2309 234.68 81.8739 237.191 82.9189C238.373 83.4109 239.931 83.2749 240.688 84.3079C241.944 86.0209 239.53 88.9219 241.063 90.3929C242.112 91.3989 244.49 91.0149 244.636 92.4609C244.705 93.1409 244.26 94.1249 244.914 94.3239C245.276 94.4339 245.609 94.1029 245.843 93.8059C246.408 93.0879 246.99 92.3369 247.184 91.4449C247.378 90.5519 247.06 89.4769 246.229 89.0989C245.59 88.8079 243.901 89.1329 244.016 89.8249C244.154 90.6579 243.439 86.5699 243.759 85.0249C244.038 83.6799 245.323 82.5139 244.933 81.1959C244.518 79.7899 242.847 79.2289 241.398 79.0139C239.948 78.7989 238.303 78.6229 237.412 77.4589C236.417 76.1589 236.869 74.3019 236.55 72.6959C236.143 70.6539 234.44 69.0629 232.529 68.2349C226.732 65.7199 217.764 66.0769 215.768 73.3609Z" fill="#263238"/>
<path d="M232.235 100.044L212.24 110.089C205.666 113.391 202.692 121.156 205.378 128.006L215.021 152.599C217.707 159.448 225.169 163.129 232.238 161.09L253.74 154.889C261.798 152.566 266.111 143.821 263.05 136.014L251.9 107.577C248.839 99.771 239.728 96.28 232.235 100.044ZM228.931 142.28C224.473 144.025 219.441 141.826 217.693 137.369C215.945 132.912 218.144 127.884 222.602 126.139C227.06 124.394 232.09 126.592 233.838 131.049C235.586 135.506 233.389 140.535 228.931 142.28Z" fill="#407BFF"/>
<path d="M232.235 100.044L212.24 110.089C205.666 113.391 202.692 121.156 205.378 128.006L215.021 152.599C217.707 159.448 225.169 163.129 232.238 161.09L253.74 154.889C261.798 152.566 266.111 143.821 263.05 136.014L251.9 107.577C248.839 99.771 239.728 96.28 232.235 100.044ZM228.931 142.28C224.473 144.025 219.441 141.826 217.693 137.369C215.945 132.912 218.144 127.884 222.602 126.139C227.06 124.394 232.09 126.592 233.838 131.049C235.586 135.506 233.389 140.535 228.931 142.28Z" fill="#407BFF"/>
<path opacity="0.1" d="M263.054 136.018L251.898 107.582C248.841 99.768 239.729 96.278 232.239 100.043L226.43 102.962L222.528 104.918L212.247 110.088C205.671 113.391 202.693 121.156 205.376 128.007L215.019 152.6C217.712 159.451 225.173 163.127 232.24 161.093L253.747 154.891C255.506 154.38 257.089 153.564 258.455 152.512C259.517 151.706 260.441 150.762 261.217 149.711C264.037 145.916 264.922 140.795 263.054 136.018ZM228.926 142.279C224.473 144.029 219.44 141.827 217.691 137.364C215.941 132.911 218.143 127.879 222.606 126.139C227.058 124.389 232.091 126.591 233.841 131.044C235.581 135.507 233.389 140.53 228.926 142.279Z" fill="white"/>
<path d="M232.442 101.915L213.689 111.335C207.524 114.432 204.735 121.715 207.254 128.14L216.298 151.204C218.817 157.628 225.815 161.08 232.446 159.169L252.612 153.353C260.169 151.174 264.215 142.973 261.344 135.651L250.886 108.98C248.015 101.659 239.469 98.384 232.442 101.915ZM217.693 137.369C215.945 132.912 218.144 127.884 222.602 126.139C227.06 124.394 232.09 126.592 233.838 131.049C235.586 135.506 233.389 140.535 228.931 142.28C224.473 144.025 219.441 141.826 217.693 137.369Z" fill="#407BFF"/>
<path opacity="0.1" d="M232.442 101.915L213.689 111.335C207.524 114.432 204.735 121.715 207.254 128.14L216.298 151.204C218.817 157.628 225.815 161.08 232.446 159.169L252.612 153.353C260.169 151.174 264.215 142.973 261.344 135.651L250.886 108.98C248.015 101.659 239.469 98.384 232.442 101.915ZM217.693 137.369C215.945 132.912 218.144 127.884 222.602 126.139C227.06 124.394 232.09 126.592 233.838 131.049C235.586 135.506 233.389 140.535 228.931 142.28C224.473 144.025 219.441 141.826 217.693 137.369Z" fill="#407BFF"/>
<path d="M325.618 93.0209L325.045 94.0679L324.727 94.6489L323.822 96.3019L324.201 100.533C324.217 100.714 324.196 100.893 324.143 101.058C324.022 101.424 323.744 101.729 323.37 101.876L315.466 104.97C315.093 105.116 314.683 105.083 314.345 104.894C314.236 104.834 314.135 104.759 314.045 104.666L309.578 100.123L309.566 100.11L303.212 102.597L304.133 104.945L297.779 107.432L299.295 111.299L294.617 113.13C294.234 113.28 293.811 113.254 293.456 113.069C293.339 113.011 293.231 112.933 293.133 112.842L290.437 110.306L284.083 112.793L285.599 116.66L278.918 119.275L280.441 123.158C280.69 123.792 280.377 124.508 279.743 124.756L261.446 131.919L253.506 111.671L319.691 85.7629L320.726 86.2939L324.082 88.0169C325.911 88.9559 326.606 91.2189 325.618 93.0209Z" fill="#407BFF"/>
<g opacity="0.1">
<path d="M325.618 93.0209L325.045 94.0679L324.727 94.6489L323.822 96.3019L324.201 100.533C324.217 100.714 324.196 100.893 324.143 101.058C324.022 101.424 323.744 101.729 323.37 101.876L315.466 104.97C315.093 105.116 314.683 105.083 314.345 104.894C314.236 104.834 314.135 104.759 314.045 104.666L309.578 100.123L309.566 100.11L303.212 102.597L304.133 104.945L297.779 107.432L299.295 111.299L294.617 113.13C294.234 113.28 293.811 113.254 293.456 113.069C293.339 113.011 293.231 112.933 293.133 112.842L290.437 110.306L284.083 112.793L285.599 116.66L278.918 119.275L280.441 123.158C280.69 123.792 280.377 124.508 279.743 124.756L261.446 131.919L253.506 111.671L319.691 85.7629L320.726 86.2939L324.082 88.0169C325.911 88.9559 326.606 91.2189 325.618 93.0209Z" fill="white"/>
</g>
<path d="M325.358 90.7159L254.597 118.415L252.535 113.218L320.002 86.8079L323.358 88.5309C324.636 89.1869 325.37 89.7959 325.358 90.7159Z" fill="#407BFF"/>
<path opacity="0.1" d="M325.358 90.7159L254.597 118.415L252.535 113.218L320.002 86.8079L323.358 88.5309C324.636 89.1869 325.37 89.7959 325.358 90.7159Z" fill="black"/>
<path d="M323.961 94.6179L323.276 96.1559C323.265 96.1809 323.26 96.2089 323.263 96.2359L323.646 100.425C323.66 100.578 323.647 100.73 323.611 100.873C323.599 100.922 323.561 100.961 323.514 100.98L314.921 104.362C314.875 104.38 314.822 104.378 314.779 104.351C314.696 104.299 314.617 104.236 314.547 104.164L309.632 99.2259C309.587 99.1799 309.519 99.1659 309.459 99.1899L302.483 101.936C302.4 101.969 302.359 102.062 302.392 102.145L303.222 104.25C303.255 104.333 303.214 104.426 303.131 104.459L297.182 106.801C297.099 106.834 297.059 106.927 297.091 107.01L298.524 110.644C298.557 110.727 298.516 110.82 298.433 110.853L294.068 112.571C294.024 112.589 293.973 112.587 293.931 112.563C293.839 112.51 293.753 112.446 293.674 112.372L290.483 109.431C290.437 109.389 290.372 109.377 290.315 109.4L283.385 112.128C283.302 112.161 283.261 112.254 283.294 112.337L284.762 116.061C284.795 116.144 284.754 116.237 284.671 116.27L258.063 126.741C257.98 126.774 257.887 126.733 257.854 126.651L255.199 119.986C255.166 119.903 255.207 119.809 255.29 119.776L324.626 92.4859C324.761 92.4329 324.892 92.5709 324.832 92.7029L323.961 94.6179Z" fill="#407BFF"/>
<path opacity="0.1" d="M323.961 94.6179L323.276 96.1559C323.265 96.1809 323.26 96.2089 323.263 96.2359L323.646 100.425C323.66 100.578 323.647 100.73 323.611 100.873C323.599 100.922 323.561 100.961 323.514 100.98L314.921 104.362C314.875 104.38 314.822 104.378 314.779 104.351C314.696 104.299 314.617 104.236 314.547 104.164L309.632 99.2259C309.587 99.1799 309.519 99.1659 309.459 99.1899L302.483 101.936C302.4 101.969 302.359 102.062 302.392 102.145L303.222 104.25C303.255 104.333 303.214 104.426 303.131 104.459L297.182 106.801C297.099 106.834 297.059 106.927 297.091 107.01L298.524 110.644C298.557 110.727 298.516 110.82 298.433 110.853L294.068 112.571C294.024 112.589 293.973 112.587 293.931 112.563C293.839 112.51 293.753 112.446 293.674 112.372L290.483 109.431C290.437 109.389 290.372 109.377 290.315 109.4L283.385 112.128C283.302 112.161 283.261 112.254 283.294 112.337L284.762 116.061C284.795 116.144 284.754 116.237 284.671 116.27L258.063 126.741C257.98 126.774 257.887 126.733 257.854 126.651L255.199 119.986C255.166 119.903 255.207 119.809 255.29 119.776L324.626 92.4859C324.761 92.4329 324.892 92.5709 324.832 92.7029L323.961 94.6179Z" fill="black"/>
<path opacity="0.3" d="M222.073 123.976C216.481 126.165 213.724 132.472 215.916 138.064C218.109 143.656 224.42 146.413 230.012 144.224C235.605 142.035 238.361 135.728 236.169 130.136C233.976 124.544 227.666 121.787 222.073 123.976ZM228.931 142.28C224.473 144.025 219.441 141.826 217.693 137.369C215.945 132.912 218.144 127.884 222.602 126.139C227.06 124.394 232.09 126.592 233.838 131.049C235.586 135.506 233.389 140.535 228.931 142.28Z" fill="white"/>
<path opacity="0.1" d="M261.213 149.701C260.436 150.753 259.512 151.696 258.451 152.502L222.525 104.908L222.496 104.869C222.496 104.869 225.661 103.277 226.378 102.805C226.378 102.844 226.398 102.894 226.427 102.952C227.999 106.323 256.239 142.987 261.213 149.701Z" fill="white"/>
<path opacity="0.1" d="M256.023 154.006C255.797 154.114 245.329 157.299 245.329 157.299L233.662 141.847C236.679 138.888 237.81 134.308 236.168 130.13C233.976 124.537 227.666 121.775 222.073 123.967C221.581 124.154 221.119 124.38 220.677 124.635L210.356 110.962C210.356 110.962 219.429 106.637 220.431 106.008C220.696 107.926 256.023 153.603 256.023 154.006Z" fill="white"/>
<path d="M213.188 78.9409C212.019 80.3309 211.542 82.2769 211.936 84.0499C212.33 85.8229 213.584 87.3839 215.232 88.1499C216.086 88.5469 217.026 88.7369 217.87 89.1529C218.715 89.5689 219.498 90.3019 219.588 91.2389C219.687 92.2739 218.924 93.2409 218.996 94.2779C219.062 95.2279 219.805 95.9819 220.555 96.5689C221.305 97.1559 222.143 97.7099 222.556 98.5679C222.969 99.4259 222.701 100.697 221.782 100.947C221.588 101.244 221.514 101.952 221.761 102.207C222.008 102.461 222.436 102.515 222.738 102.329C224.149 101.461 225.118 99.8239 225.129 98.1669C225.14 96.5099 224.1 94.8929 222.588 94.2149C222.316 93.6639 222.527 92.9649 222.755 92.3939C223.213 91.2489 223.67 90.1039 224.128 88.9589C224.308 88.5089 224.148 87.6899 223.841 87.3159C223.534 86.9419 223.071 86.7379 222.626 86.5469L219.678 85.2829C218.565 84.8059 215.263 80.3799 219.183 79.0879C218.671 77.9509 217.786 77.5939 216.559 77.3699C215.332 77.1459 213.991 77.9859 213.188 78.9409Z" fill="#263238"/>
<path d="M218.538 74.1799C218.44 75.3439 218.342 76.5069 218.244 77.6709C219.221 76.0669 221.031 72.9579 220.969 73.0789C220.201 73.4959 219.307 73.7619 218.538 74.1799Z" fill="#263238"/>
<path d="M219.861 76.0919C221.227 74.8289 222.592 73.5659 223.958 72.3039C222.904 71.9089 221.628 72.2029 220.853 73.0199C220.876 72.9339 220.244 74.8739 219.861 76.0919Z" fill="#263238"/>
<path d="M211.533 170.7C206.199 177.318 207.974 182.394 200.613 194.111C209.897 200.993 220.076 202.133 232.73 201.15C234.225 198.501 234.981 195.736 236.477 193.086C238.622 195.747 240.344 197.984 242.488 200.645C249.118 199.606 256.995 197.743 262.238 194.364C257.608 189.054 254.733 182.421 251.768 176.566C250.378 173.821 250.96 172.665 247.272 169.065C235.524 169.607 223.873 169.894 212.125 170.436C212.436 170.453 211.223 170.684 211.533 170.7Z" fill="#264A99"/>
<path d="M212.995 169.594L212.259 172.683C212.152 172.926 212.439 173.156 212.834 173.134L245.217 171.701C245.527 171.706 245.774 171.522 245.787 171.334L245.959 168.264C245.962 168.058 245.693 167.884 245.354 167.907L213.536 169.312C213.318 169.302 213.112 169.41 212.995 169.594Z" fill="#407BFF"/>
<path d="M212.995 169.594L212.259 172.683C212.152 172.926 212.439 173.156 212.834 173.134L245.217 171.701C245.527 171.706 245.774 171.522 245.787 171.334L245.959 168.264C245.962 168.058 245.693 167.884 245.354 167.907L213.536 169.312C213.318 169.302 213.112 169.41 212.995 169.594Z" fill="#407BFF"/>
<path d="M220.127 173.138L219.187 173.179C219.008 173.176 218.859 173.099 218.871 172.986L219.124 168.996C219.126 168.883 219.287 168.782 219.475 168.776L220.416 168.725C220.595 168.728 220.744 168.806 220.732 168.928L220.479 172.908C220.468 173.021 220.306 173.132 220.127 173.138Z" fill="#263238"/>
<path d="M243.508 172.13L242.568 172.171C242.389 172.168 242.24 172.09 242.252 171.978L242.505 167.997C242.507 167.875 242.668 167.774 242.847 167.768L243.787 167.727C243.966 167.73 244.115 167.808 244.103 167.92L243.85 171.9C243.848 172.023 243.696 172.124 243.508 172.13Z" fill="#263238"/>
<path d="M224.309 153.719C224.37 154.014 226.885 158.015 228.856 157.738C228.872 157.736 228.889 157.733 228.905 157.731C229.48 157.65 230.053 157.883 230.407 158.343C231.199 159.374 231.677 159.965 232.212 160.642C233.08 161.741 234.587 162.093 235.857 161.503C236.233 161.328 236.605 161.136 236.975 160.94C238.196 160.292 238.819 158.893 238.487 157.551C238.123 156.08 237.557 154.659 236.805 153.344C236.548 152.894 236.253 152.44 235.806 152.18C235.359 151.919 231.02 150.608 229.335 150.661C227.58 150.716 225.915 153.013 224.309 153.719Z" fill="#E8BFBF"/>
<path d="M229.378 150.529C229.378 150.529 202.796 142.48 197.062 147.839C193.691 150.99 195.283 153.965 197.167 155.883C198.569 157.31 201.623 156.959 203.621 156.866L224.56 154.812L229.378 150.529Z" fill="#E8BFBF"/>
<path d="M214.103 146.852C213.959 145.413 212.845 144.218 211.551 143.573C210.257 142.928 208.791 142.737 207.357 142.555C204.017 142.132 200.677 141.708 197.337 141.285C195.641 143.43 194.421 146.376 194.474 149.11C194.527 151.844 195.556 154.549 197.333 156.627C198.931 153.537 201.039 150.356 204.16 148.821C207.282 147.287 210.68 146.232 214.103 146.852Z" fill="#264A99"/>
<path opacity="0.1" d="M207.25 98.2999C207.22 98.2399 207.22 98.2099 207.25 98.1999C207.46 98.1399 207.43 98.1799 207.25 98.2999Z" fill="white"/>
<path d="M273.289 55.2639L280.695 68.9959L310.913 43.3359C311.179 43.1099 310.871 42.7009 310.58 42.8929L282.252 61.5909L277.885 53.0739L273.289 55.2639Z" fill="#407BFF"/>
<path d="M320.965 55.3279C320.965 67.5659 308.118 77.4829 292.273 77.4829C286.189 77.4829 280.556 76.0279 275.917 73.5219L259.071 80.8449L269.705 68.9999C265.872 65.2449 263.581 60.4979 263.581 55.3269C263.581 43.0889 276.428 33.1719 292.273 33.1719C308.118 33.1729 320.965 43.0909 320.965 55.3279Z" stroke="#407BFF" stroke-width="1.3" stroke-miterlimit="10"/>
</g>
<defs>
<clipPath id="clip0_2_6450">
<rect width="500" height="385" fill="white" transform="translate(-26)"/>
</clipPath>
</defs>
</svg>
