<svg width="45" height="45" viewBox="0 0 45 45" fill="none" xmlns="http://www.w3.org/2000/svg">
<g clip-path="url(#clip0_6_8921)">
<rect width="45" height="45" rx="22.5" fill="#151F6D"/>
<path d="M12 28.75C12 29.4404 12.5596 30 13.25 30H20.75C21.4404 30 22 29.4404 22 28.75C22 28.0596 21.4404 27.5 20.75 27.5H13.25C12.5596 27.5 12 28.0596 12 28.75ZM12 22.5C12 23.1904 12.5596 23.75 13.25 23.75H30.75C31.4404 23.75 32 23.1904 32 22.5C32 21.8096 31.4404 21.25 30.75 21.25H13.25C12.5596 21.25 12 21.8096 12 22.5ZM13.25 15C12.5596 15 12 15.5596 12 16.25C12 16.9404 12.5596 17.5 13.25 17.5H30.75C31.4404 17.5 32 16.9404 32 16.25C32 15.5596 31.4404 15 30.75 15H13.25Z" fill="white"/>
</g>
<defs>
<clipPath id="clip0_6_8921">
<rect width="45" height="45" rx="22.5" fill="white"/>
</clipPath>
</defs>
</svg>
